<svg width="30" height="22" viewBox="0 0 30 22" fill="none" xmlns="http://www.w3.org/2000/svg">
<g id="arrow" clip-path="url(#clip0_23_17741)">
<g id="OBJECTS" filter="url(#filter0_d_23_17741)">
<path id="Vector" d="M29.0556 10.353H27.7778V11.6471H29.0556V10.353Z" fill="black"/>
<path id="Vector_2" d="M27.7778 11.647H26.5V12.9411H27.7778V11.647Z" fill="black"/>
<path id="Vector_3" d="M27.7778 10.353H26.5V11.6471H27.7778V10.353Z" fill="#7C24E2"/>
<path id="Vector_4" d="M27.7778 9.05884H26.5V10.353H27.7778V9.05884Z" fill="black"/>
<path id="Vector_5" d="M26.4999 12.9412H25.2222V14.2353H26.4999V12.9412Z" fill="black"/>
<path id="Vector_6" d="M26.4999 11.647H25.2222V12.9411H26.4999V11.647Z" fill="#7C24E2"/>
<path id="Vector_7" d="M26.4999 10.353H25.2222V11.6471H26.4999V10.353Z" fill="#7C24E2"/>
<path id="Vector_8" d="M26.4999 9.05884H25.2222V10.353H26.4999V9.05884Z" fill="#BB80FF"/>
<path id="Vector_9" d="M26.4999 7.76465H25.2222V9.05877H26.4999V7.76465Z" fill="black"/>
<path id="Vector_10" d="M25.2221 14.2354H23.9443V15.5295H25.2221V14.2354Z" fill="black"/>
<path id="Vector_11" d="M25.2221 12.9412H23.9443V14.2353H25.2221V12.9412Z" fill="#7C24E2"/>
<path id="Vector_12" d="M25.2221 11.647H23.9443V12.9411H25.2221V11.647Z" fill="#7C24E2"/>
<path id="Vector_13" d="M25.2221 10.353H23.9443V11.6471H25.2221V10.353Z" fill="#A140FF"/>
<path id="Vector_14" d="M25.2221 9.05884H23.9443V10.353H25.2221V9.05884Z" fill="#BB80FF"/>
<path id="Vector_15" d="M25.2221 7.76465H23.9443V9.05877H25.2221V7.76465Z" fill="#BB80FF"/>
<path id="Vector_16" d="M25.2221 6.4707H23.9443V7.76482H25.2221V6.4707Z" fill="black"/>
<path id="Vector_17" d="M23.9443 15.5293H22.6665V16.8234H23.9443V15.5293Z" fill="black"/>
<path id="Vector_18" d="M23.9443 14.2354H22.6665V15.5295H23.9443V14.2354Z" fill="#7C24E2"/>
<path id="Vector_19" d="M23.9443 12.9412H22.6665V14.2353H23.9443V12.9412Z" fill="#7C24E2"/>
<path id="Vector_20" d="M23.9443 11.647H22.6665V12.9411H23.9443V11.647Z" fill="#A140FF"/>
<path id="Vector_21" d="M23.9443 10.353H22.6665V11.6471H23.9443V10.353Z" fill="#A140FF"/>
<path id="Vector_22" d="M23.9443 9.05884H22.6665V10.353H23.9443V9.05884Z" fill="#A140FF"/>
<path id="Vector_23" d="M23.9443 7.76465H22.6665V9.05877H23.9443V7.76465Z" fill="#BB80FF"/>
<path id="Vector_24" d="M23.9443 6.4707H22.6665V7.76482H23.9443V6.4707Z" fill="#BB80FF"/>
<path id="Vector_25" d="M23.9443 5.17651H22.6665V6.47063H23.9443V5.17651Z" fill="black"/>
<path id="Vector_26" d="M22.6664 16.8235H21.3887V18.1176H22.6664V16.8235Z" fill="black"/>
<path id="Vector_27" d="M22.6664 15.5293H21.3887V16.8234H22.6664V15.5293Z" fill="#7C24E2"/>
<path id="Vector_28" d="M22.6664 14.2354H21.3887V15.5295H22.6664V14.2354Z" fill="#7C24E2"/>
<path id="Vector_29" d="M22.6664 12.9412H21.3887V14.2353H22.6664V12.9412Z" fill="#A140FF"/>
<path id="Vector_30" d="M22.6664 11.647H21.3887V12.9411H22.6664V11.647Z" fill="#A140FF"/>
<path id="Vector_31" d="M22.6664 10.353H21.3887V11.6471H22.6664V10.353Z" fill="#A140FF"/>
<path id="Vector_32" d="M22.6664 9.05884H21.3887V10.353H22.6664V9.05884Z" fill="#A140FF"/>
<path id="Vector_33" d="M22.6664 7.76465H21.3887V9.05877H22.6664V7.76465Z" fill="#A140FF"/>
<path id="Vector_34" d="M22.6664 6.4707H21.3887V7.76482H22.6664V6.4707Z" fill="#BB80FF"/>
<path id="Vector_35" d="M22.6664 5.17651H21.3887V6.47063H22.6664V5.17651Z" fill="#BB80FF"/>
<path id="Vector_36" d="M22.6664 3.88232H21.3887V5.17644H22.6664V3.88232Z" fill="black"/>
<path id="Vector_37" d="M21.3886 18.1177H20.1108V19.4118H21.3886V18.1177Z" fill="black"/>
<path id="Vector_38" d="M21.3886 16.8235H20.1108V18.1176H21.3886V16.8235Z" fill="#7C24E2"/>
<path id="Vector_39" d="M21.3886 15.5293H20.1108V16.8234H21.3886V15.5293Z" fill="#7C24E2"/>
<path id="Vector_40" d="M21.3886 14.2354H20.1108V15.5295H21.3886V14.2354Z" fill="#A140FF"/>
<path id="Vector_41" d="M21.3886 12.9412H20.1108V14.2353H21.3886V12.9412Z" fill="#A140FF"/>
<path id="Vector_42" d="M21.3886 11.647H20.1108V12.9411H21.3886V11.647Z" fill="#A140FF"/>
<path id="Vector_43" d="M21.3886 10.353H20.1108V11.6471H21.3886V10.353Z" fill="#A140FF"/>
<path id="Vector_44" d="M21.3886 9.05884H20.1108V10.353H21.3886V9.05884Z" fill="#A140FF"/>
<path id="Vector_45" d="M21.3886 7.76465H20.1108V9.05877H21.3886V7.76465Z" fill="#A140FF"/>
<path id="Vector_46" d="M21.3886 6.4707H20.1108V7.76482H21.3886V6.4707Z" fill="#A140FF"/>
<path id="Vector_47" d="M21.3886 5.17651H20.1108V6.47063H21.3886V5.17651Z" fill="#BB80FF"/>
<path id="Vector_48" d="M21.3886 3.88232H20.1108V5.17644H21.3886V3.88232Z" fill="#BB80FF"/>
<path id="Vector_49" d="M21.3886 2.58813H20.1108V3.88225H21.3886V2.58813Z" fill="black"/>
<path id="Vector_50" d="M20.1108 19.4119H18.833V20.706H20.1108V19.4119Z" fill="black"/>
<path id="Vector_51" d="M20.1108 18.1177H18.833V19.4118H20.1108V18.1177Z" fill="#7C24E2"/>
<path id="Vector_52" d="M20.1108 16.8235H18.833V18.1176H20.1108V16.8235Z" fill="#7C24E2"/>
<path id="Vector_53" d="M20.1108 15.5293H18.833V16.8234H20.1108V15.5293Z" fill="#A140FF"/>
<path id="Vector_54" d="M20.1108 14.2354H18.833V15.5295H20.1108V14.2354Z" fill="#A140FF"/>
<path id="Vector_55" d="M20.1108 12.9412H18.833V14.2353H20.1108V12.9412Z" fill="#A140FF"/>
<path id="Vector_56" d="M20.1108 11.647H18.833V12.9411H20.1108V11.647Z" fill="#A140FF"/>
<path id="Vector_57" d="M20.1108 10.353H18.833V11.6471H20.1108V10.353Z" fill="#A140FF"/>
<path id="Vector_58" d="M20.1108 9.05884H18.833V10.353H20.1108V9.05884Z" fill="#A140FF"/>
<path id="Vector_59" d="M20.1108 7.76465H18.833V9.05877H20.1108V7.76465Z" fill="#A140FF"/>
<path id="Vector_60" d="M20.1108 6.4707H18.833V7.76482H20.1108V6.4707Z" fill="#A140FF"/>
<path id="Vector_61" d="M20.1108 5.17651H18.833V6.47063H20.1108V5.17651Z" fill="#A140FF"/>
<path id="Vector_62" d="M20.1108 3.88232H18.833V5.17644H20.1108V3.88232Z" fill="#BB80FF"/>
<path id="Vector_63" d="M20.1108 2.58813H18.833V3.88225H20.1108V2.58813Z" fill="#BB80FF"/>
<path id="Vector_64" d="M20.1108 1.29419H18.833V2.58831H20.1108V1.29419Z" fill="black"/>
<path id="Vector_65" d="M18.8334 20.7058H17.5557V21.9999H18.8334V20.7058Z" fill="black"/>
<path id="Vector_66" d="M18.8334 19.4119H17.5557V20.706H18.8334V19.4119Z" fill="#7C24E2"/>
<path id="Vector_67" d="M18.8334 18.1177H17.5557V19.4118H18.8334V18.1177Z" fill="#7C24E2"/>
<path id="Vector_68" d="M18.8334 16.8235H17.5557V18.1176H18.8334V16.8235Z" fill="#7C24E2"/>
<path id="Vector_69" d="M18.8334 15.5293H17.5557V16.8234H18.8334V15.5293Z" fill="#7C24E2"/>
<path id="Vector_70" d="M18.8334 14.2354H17.5557V15.5295H18.8334V14.2354Z" fill="#7C24E2"/>
<path id="Vector_71" d="M18.8334 12.9412H17.5557V14.2353H18.8334V12.9412Z" fill="#A140FF"/>
<path id="Vector_72" d="M18.8334 11.647H17.5557V12.9411H18.8334V11.647Z" fill="#A140FF"/>
<path id="Vector_73" d="M18.8334 10.353H17.5557V11.6471H18.8334V10.353Z" fill="#A140FF"/>
<path id="Vector_74" d="M18.8334 9.05884H17.5557V10.353H18.8334V9.05884Z" fill="#A140FF"/>
<path id="Vector_75" d="M18.8334 7.76465H17.5557V9.05877H18.8334V7.76465Z" fill="#A140FF"/>
<path id="Vector_76" d="M18.8334 6.4707H17.5557V7.76482H18.8334V6.4707Z" fill="#BB80FF"/>
<path id="Vector_77" d="M18.8334 5.17651H17.5557V6.47063H18.8334V5.17651Z" fill="#BB80FF"/>
<path id="Vector_78" d="M18.8334 3.88232H17.5557V5.17644H18.8334V3.88232Z" fill="#BB80FF"/>
<path id="Vector_79" d="M18.8334 2.58813H17.5557V3.88225H18.8334V2.58813Z" fill="#BB80FF"/>
<path id="Vector_80" d="M18.8334 1.29419H17.5557V2.58831H18.8334V1.29419Z" fill="#BB80FF"/>
<path id="Vector_81" d="M18.8334 0H17.5557V1.29412H18.8334V0Z" fill="black"/>
<path id="Vector_82" d="M17.5556 19.4119H16.2778V20.706H17.5556V19.4119Z" fill="black"/>
<path id="Vector_83" d="M17.5556 18.1177H16.2778V19.4118H17.5556V18.1177Z" fill="black"/>
<path id="Vector_84" d="M17.5556 16.8235H16.2778V18.1176H17.5556V16.8235Z" fill="black"/>
<path id="Vector_85" d="M17.5556 15.5293H16.2778V16.8234H17.5556V15.5293Z" fill="black"/>
<path id="Vector_86" d="M17.5556 14.2354H16.2778V15.5295H17.5556V14.2354Z" fill="#7C24E2"/>
<path id="Vector_87" d="M17.5556 12.9412H16.2778V14.2353H17.5556V12.9412Z" fill="#A140FF"/>
<path id="Vector_88" d="M17.5556 11.647H16.2778V12.9411H17.5556V11.647Z" fill="#A140FF"/>
<path id="Vector_89" d="M17.5556 10.353H16.2778V11.6471H17.5556V10.353Z" fill="#A140FF"/>
<path id="Vector_90" d="M17.5556 9.05884H16.2778V10.353H17.5556V9.05884Z" fill="#A140FF"/>
<path id="Vector_91" d="M17.5556 7.76465H16.2778V9.05877H17.5556V7.76465Z" fill="#A140FF"/>
<path id="Vector_92" d="M17.5556 6.4707H16.2778V7.76482H17.5556V6.4707Z" fill="#BB80FF"/>
<path id="Vector_93" d="M17.5556 5.17651H16.2778V6.47063H17.5556V5.17651Z" fill="black"/>
<path id="Vector_94" d="M17.5556 3.88232H16.2778V5.17644H17.5556V3.88232Z" fill="black"/>
<path id="Vector_95" d="M17.5556 2.58813H16.2778V3.88225H17.5556V2.58813Z" fill="black"/>
<path id="Vector_96" d="M17.5556 1.29419H16.2778V2.58831H17.5556V1.29419Z" fill="black"/>
<path id="Vector_97" d="M16.2778 15.5293H15V16.8234H16.2778V15.5293Z" fill="black"/>
<path id="Vector_98" d="M16.2778 14.2354H15V15.5295H16.2778V14.2354Z" fill="#7C24E2"/>
<path id="Vector_99" d="M16.2778 12.9412H15V14.2353H16.2778V12.9412Z" fill="#A140FF"/>
<path id="Vector_100" d="M16.2778 11.647H15V12.9411H16.2778V11.647Z" fill="#A140FF"/>
<path id="Vector_101" d="M16.2778 10.353H15V11.6471H16.2778V10.353Z" fill="#A140FF"/>
<path id="Vector_102" d="M16.2778 9.05884H15V10.353H16.2778V9.05884Z" fill="#A140FF"/>
<path id="Vector_103" d="M16.2778 7.76465H15V9.05877H16.2778V7.76465Z" fill="#A140FF"/>
<path id="Vector_104" d="M16.2778 6.4707H15V7.76482H16.2778V6.4707Z" fill="#BB80FF"/>
<path id="Vector_105" d="M16.2778 5.17651H15V6.47063H16.2778V5.17651Z" fill="black"/>
<path id="Vector_106" d="M14.9999 15.5293H13.7222V16.8234H14.9999V15.5293Z" fill="black"/>
<path id="Vector_107" d="M14.9999 14.2354H13.7222V15.5295H14.9999V14.2354Z" fill="#7C24E2"/>
<path id="Vector_108" d="M14.9999 12.9412H13.7222V14.2353H14.9999V12.9412Z" fill="#A140FF"/>
<path id="Vector_109" d="M14.9999 11.647H13.7222V12.9411H14.9999V11.647Z" fill="#A140FF"/>
<path id="Vector_110" d="M14.9999 10.353H13.7222V11.6471H14.9999V10.353Z" fill="#A140FF"/>
<path id="Vector_111" d="M14.9999 9.05884H13.7222V10.353H14.9999V9.05884Z" fill="#A140FF"/>
<path id="Vector_112" d="M14.9999 7.76465H13.7222V9.05877H14.9999V7.76465Z" fill="#A140FF"/>
<path id="Vector_113" d="M14.9999 6.4707H13.7222V7.76482H14.9999V6.4707Z" fill="#BB80FF"/>
<path id="Vector_114" d="M14.9999 5.17651H13.7222V6.47063H14.9999V5.17651Z" fill="black"/>
<path id="Vector_115" d="M13.7221 15.5293H12.4443V16.8234H13.7221V15.5293Z" fill="black"/>
<path id="Vector_116" d="M13.7221 14.2354H12.4443V15.5295H13.7221V14.2354Z" fill="#7C24E2"/>
<path id="Vector_117" d="M13.7221 12.9412H12.4443V14.2353H13.7221V12.9412Z" fill="#A140FF"/>
<path id="Vector_118" d="M13.7221 11.647H12.4443V12.9411H13.7221V11.647Z" fill="#A140FF"/>
<path id="Vector_119" d="M13.7221 10.353H12.4443V11.6471H13.7221V10.353Z" fill="#A140FF"/>
<path id="Vector_120" d="M13.7221 9.05884H12.4443V10.353H13.7221V9.05884Z" fill="#A140FF"/>
<path id="Vector_121" d="M13.7221 7.76465H12.4443V9.05877H13.7221V7.76465Z" fill="#A140FF"/>
<path id="Vector_122" d="M13.7221 6.4707H12.4443V7.76482H13.7221V6.4707Z" fill="#BB80FF"/>
<path id="Vector_123" d="M13.7221 5.17651H12.4443V6.47063H13.7221V5.17651Z" fill="black"/>
<path id="Vector_124" d="M12.4443 15.5293H11.1665V16.8234H12.4443V15.5293Z" fill="black"/>
<path id="Vector_125" d="M12.4443 14.2354H11.1665V15.5295H12.4443V14.2354Z" fill="#7C24E2"/>
<path id="Vector_126" d="M12.4443 12.9412H11.1665V14.2353H12.4443V12.9412Z" fill="#A140FF"/>
<path id="Vector_127" d="M12.4443 11.647H11.1665V12.9411H12.4443V11.647Z" fill="#A140FF"/>
<path id="Vector_128" d="M12.4443 10.353H11.1665V11.6471H12.4443V10.353Z" fill="#A140FF"/>
<path id="Vector_129" d="M12.4443 9.05884H11.1665V10.353H12.4443V9.05884Z" fill="#A140FF"/>
<path id="Vector_130" d="M12.4443 7.76465H11.1665V9.05877H12.4443V7.76465Z" fill="#A140FF"/>
<path id="Vector_131" d="M12.4443 6.4707H11.1665V7.76482H12.4443V6.4707Z" fill="#BB80FF"/>
<path id="Vector_132" d="M12.4443 5.17651H11.1665V6.47063H12.4443V5.17651Z" fill="black"/>
<path id="Vector_133" d="M11.1664 15.5293H9.88867V16.8234H11.1664V15.5293Z" fill="black"/>
<path id="Vector_134" d="M11.1664 14.2354H9.88867V15.5295H11.1664V14.2354Z" fill="#7C24E2"/>
<path id="Vector_135" d="M11.1664 12.9412H9.88867V14.2353H11.1664V12.9412Z" fill="#A140FF"/>
<path id="Vector_136" d="M11.1664 11.647H9.88867V12.9411H11.1664V11.647Z" fill="#A140FF"/>
<path id="Vector_137" d="M11.1664 10.353H9.88867V11.6471H11.1664V10.353Z" fill="#A140FF"/>
<path id="Vector_138" d="M11.1664 9.05884H9.88867V10.353H11.1664V9.05884Z" fill="#A140FF"/>
<path id="Vector_139" d="M11.1664 7.76465H9.88867V9.05877H11.1664V7.76465Z" fill="#A140FF"/>
<path id="Vector_140" d="M11.1664 6.4707H9.88867V7.76482H11.1664V6.4707Z" fill="#BB80FF"/>
<path id="Vector_141" d="M11.1664 5.17651H9.88867V6.47063H11.1664V5.17651Z" fill="black"/>
<path id="Vector_142" d="M9.88862 15.5293H8.61084V16.8234H9.88862V15.5293Z" fill="black"/>
<path id="Vector_143" d="M9.88862 14.2354H8.61084V15.5295H9.88862V14.2354Z" fill="#7C24E2"/>
<path id="Vector_144" d="M9.88862 12.9412H8.61084V14.2353H9.88862V12.9412Z" fill="#A140FF"/>
<path id="Vector_145" d="M9.88862 11.647H8.61084V12.9411H9.88862V11.647Z" fill="#A140FF"/>
<path id="Vector_146" d="M9.88862 10.353H8.61084V11.6471H9.88862V10.353Z" fill="#A140FF"/>
<path id="Vector_147" d="M9.88862 9.05884H8.61084V10.353H9.88862V9.05884Z" fill="#A140FF"/>
<path id="Vector_148" d="M9.88862 7.76465H8.61084V9.05877H9.88862V7.76465Z" fill="#A140FF"/>
<path id="Vector_149" d="M9.88862 6.4707H8.61084V7.76482H9.88862V6.4707Z" fill="#BB80FF"/>
<path id="Vector_150" d="M9.88862 5.17651H8.61084V6.47063H9.88862V5.17651Z" fill="black"/>
<path id="Vector_151" d="M8.61078 15.5293H7.33301V16.8234H8.61078V15.5293Z" fill="black"/>
<path id="Vector_152" d="M8.61078 14.2354H7.33301V15.5295H8.61078V14.2354Z" fill="#7C24E2"/>
<path id="Vector_153" d="M8.61078 12.9412H7.33301V14.2353H8.61078V12.9412Z" fill="#A140FF"/>
<path id="Vector_154" d="M8.61078 11.647H7.33301V12.9411H8.61078V11.647Z" fill="#A140FF"/>
<path id="Vector_155" d="M8.61078 10.353H7.33301V11.6471H8.61078V10.353Z" fill="#A140FF"/>
<path id="Vector_156" d="M8.61078 9.05884H7.33301V10.353H8.61078V9.05884Z" fill="#A140FF"/>
<path id="Vector_157" d="M8.61078 7.76465H7.33301V9.05877H8.61078V7.76465Z" fill="#A140FF"/>
<path id="Vector_158" d="M8.61078 6.4707H7.33301V7.76482H8.61078V6.4707Z" fill="#BB80FF"/>
<path id="Vector_159" d="M8.61078 5.17651H7.33301V6.47063H8.61078V5.17651Z" fill="black"/>
<path id="Vector_160" d="M7.33344 15.5293H6.05566V16.8234H7.33344V15.5293Z" fill="black"/>
<path id="Vector_161" d="M7.33344 14.2354H6.05566V15.5295H7.33344V14.2354Z" fill="#7C24E2"/>
<path id="Vector_162" d="M7.33344 12.9412H6.05566V14.2353H7.33344V12.9412Z" fill="#A140FF"/>
<path id="Vector_163" d="M7.33344 11.647H6.05566V12.9411H7.33344V11.647Z" fill="#A140FF"/>
<path id="Vector_164" d="M7.33344 10.353H6.05566V11.6471H7.33344V10.353Z" fill="#A140FF"/>
<path id="Vector_165" d="M7.33344 9.05884H6.05566V10.353H7.33344V9.05884Z" fill="#A140FF"/>
<path id="Vector_166" d="M7.33344 7.76465H6.05566V9.05877H7.33344V7.76465Z" fill="#A140FF"/>
<path id="Vector_167" d="M7.33344 6.4707H6.05566V7.76482H7.33344V6.4707Z" fill="#BB80FF"/>
<path id="Vector_168" d="M7.33344 5.17651H6.05566V6.47063H7.33344V5.17651Z" fill="black"/>
<path id="Vector_169" d="M6.05561 15.5293H4.77783V16.8234H6.05561V15.5293Z" fill="black"/>
<path id="Vector_170" d="M6.05561 14.2354H4.77783V15.5295H6.05561V14.2354Z" fill="#7C24E2"/>
<path id="Vector_171" d="M6.05561 12.9412H4.77783V14.2353H6.05561V12.9412Z" fill="#A140FF"/>
<path id="Vector_172" d="M6.05561 11.647H4.77783V12.9411H6.05561V11.647Z" fill="#A140FF"/>
<path id="Vector_173" d="M6.05561 10.353H4.77783V11.6471H6.05561V10.353Z" fill="#A140FF"/>
<path id="Vector_174" d="M6.05561 9.05884H4.77783V10.353H6.05561V9.05884Z" fill="#A140FF"/>
<path id="Vector_175" d="M6.05561 7.76465H4.77783V9.05877H6.05561V7.76465Z" fill="#A140FF"/>
<path id="Vector_176" d="M6.05561 6.4707H4.77783V7.76482H6.05561V6.4707Z" fill="#BB80FF"/>
<path id="Vector_177" d="M6.05561 5.17651H4.77783V6.47063H6.05561V5.17651Z" fill="black"/>
<path id="Vector_178" d="M4.77778 15.5293H3.5V16.8234H4.77778V15.5293Z" fill="black"/>
<path id="Vector_179" d="M4.77778 14.2354H3.5V15.5295H4.77778V14.2354Z" fill="#7C24E2"/>
<path id="Vector_180" d="M4.77778 12.9412H3.5V14.2353H4.77778V12.9412Z" fill="#A140FF"/>
<path id="Vector_181" d="M4.77778 11.647H3.5V12.9411H4.77778V11.647Z" fill="#A140FF"/>
<path id="Vector_182" d="M4.77778 10.353H3.5V11.6471H4.77778V10.353Z" fill="#A140FF"/>
<path id="Vector_183" d="M4.77778 9.05884H3.5V10.353H4.77778V9.05884Z" fill="#A140FF"/>
<path id="Vector_184" d="M4.77778 7.76465H3.5V9.05877H4.77778V7.76465Z" fill="#A140FF"/>
<path id="Vector_185" d="M4.77778 6.4707H3.5V7.76482H4.77778V6.4707Z" fill="#BB80FF"/>
<path id="Vector_186" d="M4.77778 5.17651H3.5V6.47063H4.77778V5.17651Z" fill="black"/>
<path id="Vector_187" d="M3.49994 15.5293H2.22217V16.8234H3.49994V15.5293Z" fill="black"/>
<path id="Vector_188" d="M3.49994 14.2354H2.22217V15.5295H3.49994V14.2354Z" fill="#7C24E2"/>
<path id="Vector_189" d="M3.49994 12.9412H2.22217V14.2353H3.49994V12.9412Z" fill="#A140FF"/>
<path id="Vector_190" d="M3.49994 11.647H2.22217V12.9411H3.49994V11.647Z" fill="#A140FF"/>
<path id="Vector_191" d="M3.49994 10.353H2.22217V11.6471H3.49994V10.353Z" fill="#A140FF"/>
<path id="Vector_192" d="M3.49994 9.05884H2.22217V10.353H3.49994V9.05884Z" fill="#A140FF"/>
<path id="Vector_193" d="M3.49994 7.76465H2.22217V9.05877H3.49994V7.76465Z" fill="#A140FF"/>
<path id="Vector_194" d="M3.49994 6.4707H2.22217V7.76482H3.49994V6.4707Z" fill="#BB80FF"/>
<path id="Vector_195" d="M3.49994 5.17651H2.22217V6.47063H3.49994V5.17651Z" fill="black"/>
<path id="Vector_196" d="M2.22211 14.2354H0.944336V15.5295H2.22211V14.2354Z" fill="black"/>
<path id="Vector_197" d="M2.22211 12.9412H0.944336V14.2353H2.22211V12.9412Z" fill="black"/>
<path id="Vector_198" d="M2.22211 11.647H0.944336V12.9411H2.22211V11.647Z" fill="black"/>
<path id="Vector_199" d="M2.22211 10.353H0.944336V11.6471H2.22211V10.353Z" fill="black"/>
<path id="Vector_200" d="M2.22211 9.05884H0.944336V10.353H2.22211V9.05884Z" fill="black"/>
<path id="Vector_201" d="M2.22211 7.76465H0.944336V9.05877H2.22211V7.76465Z" fill="black"/>
<path id="Vector_202" d="M2.22211 6.4707H0.944336V7.76482H2.22211V6.4707Z" fill="black"/>
</g>
</g>
<defs>
<filter id="filter0_d_23_17741" x="-1.05566" y="-2" width="32.1113" height="26" filterUnits="userSpaceOnUse" color-interpolation-filters="sRGB">
<feFlood flood-opacity="0" result="BackgroundImageFix"/>
<feColorMatrix in="SourceAlpha" type="matrix" values="0 0 0 0 0 0 0 0 0 0 0 0 0 0 0 0 0 0 127 0" result="hardAlpha"/>
<feOffset/>
<feGaussianBlur stdDeviation="1"/>
<feComposite in2="hardAlpha" operator="out"/>
<feColorMatrix type="matrix" values="0 0 0 0 0 0 0 0 0 0 0 0 0 0 0 0 0 0 1 0"/>
<feBlend mode="normal" in2="BackgroundImageFix" result="effect1_dropShadow_23_17741"/>
<feBlend mode="normal" in="SourceGraphic" in2="effect1_dropShadow_23_17741" result="shape"/>
</filter>
<clipPath id="clip0_23_17741">
<rect width="28.1111" height="22" fill="white" transform="translate(0.944336)"/>
</clipPath>
</defs>
</svg>
