<?xml version="1.0" encoding="UTF-8"?><svg id="Layer_2" xmlns="http://www.w3.org/2000/svg" viewBox="0 0 107.98 100.82"><defs><style>.cls-1{fill:#f6ecc7;}.cls-1,.cls-2,.cls-3,.cls-4,.cls-5{stroke-width:0px;}.cls-2{fill:#fccb25;}.cls-3{fill:#f2a12c;}.cls-4{fill:#231f20;}.cls-5{fill:#fff;}</style></defs><g id="Capa_1"><rect class="cls-3" x="86.38" y="87.37" width="3.6" height="3.36"/><rect class="cls-3" x="89.98" y="77.29" width="3.6" height="3.36"/><rect class="cls-1" x="18" y="43.69" width="3.6" height="3.36"/><polygon class="cls-3" points="104.38 33.61 100.78 33.61 97.18 33.61 93.58 33.61 93.58 36.97 93.58 40.33 93.58 43.69 93.58 47.05 93.58 50.41 93.58 53.77 93.58 57.13 93.58 60.49 93.58 63.85 93.58 67.21 93.58 70.57 89.98 70.57 89.98 73.94 89.98 77.29 93.58 77.29 93.58 80.65 89.98 80.65 89.98 77.29 86.38 77.29 86.38 80.65 82.78 80.65 82.78 84.02 79.18 84.02 79.18 87.37 79.18 90.74 75.58 90.74 71.98 90.74 71.98 94.1 68.39 94.1 68.39 97.45 64.79 97.45 61.19 97.45 61.19 100.82 64.79 100.82 68.39 100.82 71.98 100.82 75.58 100.82 75.58 97.45 79.18 97.45 82.78 97.45 82.78 94.1 86.38 94.1 86.38 90.74 86.38 87.37 89.98 87.37 89.98 90.74 93.58 90.74 93.58 87.37 93.58 84.02 97.18 84.02 97.18 80.65 100.78 80.65 100.78 77.29 100.78 73.94 104.38 73.94 104.38 70.57 104.38 67.21 107.98 67.21 107.98 63.85 107.98 60.49 107.98 57.13 107.98 53.77 107.98 50.41 107.98 47.05 107.98 43.69 107.98 40.33 107.98 36.97 107.98 33.61 104.38 33.61"/><polygon class="cls-4" points="68.39 97.37 68.39 97.45 61.19 97.45 61.19 100.82 75.58 100.82 75.58 97.45 82.78 97.45 82.78 97.37 68.39 97.37"/><rect class="cls-5" x="86.38" y="23.52" width="3.6" height="3.36"/><path class="cls-2" d="M86.38,33.61v-10.09h-3.6v-3.36h-3.6v-3.36h-3.6v-3.36h-3.6v-3.36h-3.6v-3.36h-7.2v-3.36h-28.79v3.36h-7.2v3.36h-3.6v3.36h-3.6v3.36h-3.6v3.36h-3.6v6.72h-3.6v6.72h-3.6v33.6h3.6v6.72h3.6v6.72h3.6v3.36h3.6v3.36h3.6v3.36h3.6v3.36h7.2v3.36h28.79v-3.36h7.2v-3.36h3.6v-3.36h3.6v-3.36h3.6v-3.36h3.6v-3.36h3.6v-6.72h3.6v-36.96h-3.6ZM18,36.97v-6.72h3.6v-3.36h3.6v-3.36h3.6v-3.36h3.6v-3.36h28.79v3.36h3.6v3.36h3.6v3.36h3.6v3.36h3.6v6.72h3.6v26.88h-3.6v6.72h-3.6v3.36h-3.6v3.36h-3.6v3.36h-3.6v3.36h-28.79v-3.36h-3.6v-3.36h-3.6v-3.36h-3.6v-3.36h-3.6v-6.72h-3.6v-26.88h3.6Z"/><polygon class="cls-2" points="25.2 33.61 21.6 33.61 21.6 36.97 21.6 40.33 21.6 43.69 21.6 47.05 21.6 50.41 21.6 53.77 21.6 57.13 21.6 60.49 25.2 60.49 25.2 63.85 25.2 67.21 28.79 67.21 28.79 70.57 32.39 70.57 32.39 73.94 35.99 73.94 39.59 73.94 39.59 77.29 43.19 77.29 46.79 77.29 50.39 77.29 53.99 77.29 57.59 77.29 57.59 73.94 61.19 73.94 64.79 73.94 64.79 70.57 68.39 70.57 68.39 67.21 71.98 67.21 71.98 63.85 71.98 60.49 75.58 60.49 75.58 57.13 75.58 53.77 75.58 50.41 75.58 47.05 75.58 43.69 75.58 40.33 71.98 40.33 71.98 36.97 71.98 33.61 71.98 30.25 68.39 30.25 68.39 26.89 64.79 26.89 64.79 23.52 61.19 23.52 57.59 23.52 57.59 20.17 53.99 20.17 50.39 20.17 46.79 20.17 43.19 20.17 39.59 20.17 35.99 20.17 35.99 23.52 32.39 23.52 28.79 23.52 28.79 26.89 25.2 26.89 25.2 30.25 25.2 33.61"/><polygon class="cls-3" points="100.78 23.52 100.78 20.17 100.78 16.8 97.18 16.8 97.18 20.17 93.58 20.17 89.98 20.17 89.98 23.52 89.98 26.89 89.98 30.25 93.58 30.25 93.58 26.89 97.18 26.89 100.78 26.89 100.78 30.25 100.78 33.61 104.38 33.61 104.38 30.25 104.38 26.89 104.38 23.52 100.78 23.52"/><polygon class="cls-3" points="93.58 13.44 93.58 10.09 89.98 10.09 86.38 10.09 86.38 6.72 82.78 6.72 82.78 3.36 79.18 3.36 75.58 3.36 75.58 0 71.98 0 68.39 0 64.79 0 61.19 0 61.19 3.36 64.79 3.36 68.39 3.36 68.39 6.72 71.98 6.72 71.98 10.09 75.58 10.09 75.58 13.44 79.18 13.44 79.18 16.8 82.78 16.8 86.38 16.8 89.98 16.8 93.58 16.8 97.18 16.8 97.18 13.44 93.58 13.44"/><polygon class="cls-3" points="100.78 23.52 100.78 20.17 100.78 16.8 97.18 16.8 97.18 20.17 93.58 20.17 89.98 20.17 89.98 23.52 89.98 26.89 89.98 30.25 93.58 30.25 93.58 26.89 97.18 26.89 100.78 26.89 100.78 30.25 100.78 33.61 104.38 33.61 104.38 30.25 104.38 26.89 104.38 23.52 100.78 23.52"/><polygon class="cls-4" points="100.78 23.52 100.78 20.17 100.78 16.8 97.18 16.8 97.18 16.8 97.18 16.8 97.18 20.17 97.18 23.52 100.78 23.52 100.78 26.89 100.78 26.89 100.78 30.25 100.78 33.61 104.38 33.61 104.38 30.25 104.38 26.89 104.38 23.52 100.78 23.52"/><rect class="cls-4" x="82.78" y="6.72" width="3.6" height="3.36"/><polygon class="cls-4" points="86.38 13.44 89.98 13.44 93.58 13.44 93.58 10.09 89.98 10.09 86.38 10.09 86.38 13.44"/><polygon class="cls-4" points="79.18 6.72 82.78 6.72 82.78 3.36 79.18 3.36 75.59 3.36 75.59 6.72 79.18 6.72"/><rect class="cls-4" x="93.58" y="13.44" width="3.6" height="3.36"/><polygon class="cls-4" points="64.79 3.36 64.79 3.36 68.39 3.36 68.39 3.36 71.98 3.36 75.58 3.36 75.58 0 71.98 0 68.39 0 64.79 0 61.19 0 61.19 3.36 61.19 3.36 64.79 3.36"/><polygon class="cls-4" points="89.98 77.29 86.38 77.29 86.38 80.65 86.38 80.65 86.38 80.65 89.98 80.65 89.98 77.29"/><polygon class="cls-4" points="104.38 33.61 100.78 33.61 100.78 33.61 100.78 33.61 104.38 33.61 104.38 36.97 104.38 40.33 104.38 43.69 104.38 47.05 104.38 50.41 104.38 53.77 104.38 57.13 104.38 60.49 104.38 63.85 104.38 67.21 107.98 67.21 107.98 63.85 107.98 60.49 107.98 57.13 107.98 53.77 107.98 50.41 107.98 47.05 107.98 43.69 107.98 40.33 107.98 36.97 107.98 33.61 104.38 33.61"/><polygon class="cls-4" points="89.98 84.02 89.98 87.37 89.98 87.37 89.98 90.74 93.58 90.74 93.58 87.37 93.58 84.02 89.98 84.02"/><rect class="cls-4" x="93.58" y="80.65" width="3.6" height="3.36"/><polygon class="cls-4" points="100.78 67.21 100.78 70.57 100.78 73.94 97.18 73.94 97.18 77.29 97.18 80.65 100.78 80.65 100.78 77.29 100.78 73.94 104.38 73.94 104.38 70.57 104.38 67.21 100.78 67.21"/><polygon class="cls-4" points="75.58 97.45 71.98 97.45 71.98 100.82 75.58 100.82 75.58 97.45 75.58 97.45"/><polygon class="cls-4" points="86.38 90.74 86.38 87.37 82.78 87.37 82.78 90.74 82.78 94.1 86.38 94.1 86.38 90.74 86.38 90.74"/><rect class="cls-4" x="79.18" y="94.1" width="3.6" height="3.36"/><polygon class="cls-4" points="61.19 94.1 61.19 97.45 57.59 97.45 53.99 97.45 50.39 97.45 46.79 97.45 43.19 97.45 39.59 97.45 35.99 97.45 32.39 97.45 32.39 100.82 35.99 100.82 39.59 100.82 43.19 100.82 46.79 100.82 50.39 100.82 53.99 100.82 57.59 100.82 61.19 100.82 61.19 97.45 64.79 97.45 68.39 97.45 68.39 94.1 64.79 94.1 61.19 94.1"/><rect class="cls-4" x="68.39" y="90.74" width="3.6" height="3.36"/><polygon class="cls-4" points="75.58 87.37 71.98 87.37 71.98 90.74 75.58 90.74 79.18 90.74 79.18 87.37 79.18 84.02 75.58 84.02 75.58 87.37"/><rect class="cls-4" x="79.18" y="80.65" width="3.6" height="3.36"/><rect class="cls-4" x="82.78" y="77.29" width="3.6" height="3.36"/><polygon class="cls-4" points="86.38 73.94 86.38 77.29 89.98 77.29 89.98 73.94 89.98 70.57 86.38 70.57 86.38 73.94"/><polygon class="cls-4" points="89.98 36.97 89.98 40.33 89.98 43.69 89.98 47.05 89.98 50.41 89.98 53.77 89.98 57.13 89.98 60.49 89.98 63.85 89.98 67.21 89.98 70.57 93.58 70.57 93.58 67.21 93.58 63.85 93.58 60.49 93.58 57.13 93.58 53.77 93.58 50.41 93.58 47.05 93.58 43.69 93.58 40.33 93.58 36.97 89.98 36.97"/><polygon class="cls-4" points="86.38 30.25 86.38 33.61 89.98 33.61 89.98 30.25 89.98 26.89 86.38 26.89 86.38 30.25"/><rect class="cls-4" x="82.78" y="20.17" width="3.6" height="3.36"/><rect class="cls-4" x="64.79" y="73.94" width="3.6" height="3.36"/><polygon class="cls-4" points="71.98 36.97 71.98 40.33 75.58 40.33 75.58 40.33 75.58 43.69 75.58 47.05 75.58 50.41 75.58 53.77 75.58 57.13 75.58 60.49 75.58 60.49 71.98 60.49 71.98 63.85 71.98 67.21 68.39 67.21 68.39 70.57 68.39 73.94 71.98 73.94 71.98 70.57 75.58 70.57 75.58 67.21 75.58 63.85 79.18 63.85 79.18 60.49 79.18 57.13 79.18 53.77 79.18 50.41 79.18 47.05 79.18 43.69 79.18 40.33 79.18 36.97 75.58 36.97 75.58 36.97 75.58 33.61 75.58 30.25 71.98 30.25 71.98 33.61 71.98 36.97"/><rect class="cls-4" x="68.39" y="26.89" width="3.6" height="3.36"/><rect class="cls-4" x="64.79" y="23.52" width="3.6" height="3.36"/><rect class="cls-4" x="79.18" y="16.8" width="3.6" height="3.36"/><rect class="cls-4" x="75.58" y="13.44" width="3.6" height="3.36"/><rect class="cls-4" x="71.98" y="10.09" width="3.6" height="3.36"/><rect class="cls-4" x="68.39" y="6.72" width="3.6" height="3.36"/><polygon class="cls-4" points="61.19 6.72 64.79 6.72 68.39 6.72 68.39 3.36 64.79 3.36 61.19 3.36 61.19 6.72"/><polygon class="cls-4" points="28.79 94.1 25.2 94.1 25.2 97.45 28.79 97.45 32.39 97.45 32.39 94.1 28.79 94.1"/><rect class="cls-4" x="21.6" y="90.74" width="3.6" height="3.36"/><polygon class="cls-4" points="18 87.37 18 84.02 14.4 84.02 14.4 87.37 14.4 90.74 18 90.74 21.6 90.74 21.6 87.37 18 87.37"/><rect class="cls-4" x="10.8" y="80.65" width="3.6" height="3.36"/><polygon class="cls-4" points="35.99 84.02 39.59 84.02 43.19 84.02 46.79 84.02 50.39 84.02 53.99 84.02 57.59 84.02 61.19 84.02 61.19 80.65 64.79 80.65 64.79 77.29 61.19 77.29 57.59 77.29 57.59 80.65 53.99 80.65 50.39 80.65 46.79 80.65 43.19 80.65 39.59 80.65 35.99 80.65 35.99 77.29 32.39 77.29 28.79 77.29 28.79 80.65 32.39 80.65 32.39 84.02 35.99 84.02"/><rect class="cls-4" x="25.2" y="73.94" width="3.6" height="3.36"/><polygon class="cls-4" points="10.8 73.94 7.2 73.94 7.2 77.29 7.2 80.65 10.8 80.65 10.8 77.29 10.8 73.94"/><polygon class="cls-4" points="7.2 67.21 3.6 67.21 3.6 70.57 3.6 73.94 7.2 73.94 7.2 70.57 7.2 67.21"/><polygon class="cls-4" points="3.6 60.49 3.6 57.13 3.6 53.77 3.6 50.41 3.6 47.05 3.6 43.69 3.6 40.33 3.6 36.97 0 36.97 0 40.33 0 43.69 0 47.05 0 50.41 0 53.77 0 57.13 0 60.49 0 63.85 3.6 63.85 3.6 60.49"/><polygon class="cls-4" points="25.2 67.21 21.6 67.21 21.6 63.85 21.6 60.49 18 60.49 18 57.13 18 53.77 18 50.41 18 47.05 18 43.69 18 40.33 21.6 40.33 21.6 36.97 21.6 33.61 25.2 33.61 25.2 30.25 25.2 26.89 21.6 26.89 21.6 30.25 18 30.25 18 33.61 18 36.97 14.4 36.97 14.4 40.33 14.4 43.69 14.4 47.05 14.4 50.41 14.4 53.77 14.4 57.13 14.4 60.49 14.4 63.85 18 63.85 18 67.21 18 70.57 21.6 70.57 21.6 73.94 25.2 73.94 25.2 70.57 25.2 67.21"/><polygon class="cls-4" points="7.2 30.25 7.2 26.89 3.6 26.89 3.6 30.25 3.6 33.61 7.2 33.61 7.2 30.25"/><rect class="cls-4" x="25.2" y="23.52" width="3.6" height="3.36"/><polygon class="cls-4" points="10.8 23.52 10.8 20.17 7.2 20.17 7.2 23.52 7.2 26.89 10.8 26.89 10.8 23.52"/><polygon class="cls-4" points="35.99 23.52 35.99 20.17 39.59 20.17 43.19 20.17 46.79 20.17 50.39 20.17 53.99 20.17 57.59 20.17 57.59 23.52 61.19 23.52 64.79 23.52 64.79 20.17 61.19 20.17 61.19 16.8 57.59 16.8 53.99 16.8 50.39 16.8 46.79 16.8 43.19 16.8 39.59 16.8 35.99 16.8 32.39 16.8 32.39 20.17 28.79 20.17 28.79 23.52 32.39 23.52 35.99 23.52"/><rect class="cls-4" x="10.8" y="16.8" width="3.6" height="3.36"/><rect class="cls-4" x="14.4" y="13.44" width="3.6" height="3.36"/><rect class="cls-4" x="18" y="10.09" width="3.6" height="3.36"/><rect class="cls-4" x="21.6" y="6.72" width="3.6" height="3.36"/><polygon class="cls-4" points="32.39 6.72 32.39 3.36 28.79 3.36 25.2 3.36 25.2 6.72 28.79 6.72 32.39 6.72"/><polygon class="cls-4" points="39.59 3.36 43.19 3.36 46.79 3.36 50.39 3.36 53.99 3.36 57.59 3.36 61.19 3.36 61.19 0 57.59 0 53.99 0 50.39 0 46.79 0 43.19 0 39.59 0 35.99 0 32.39 0 32.39 3.36 35.99 3.36 39.59 3.36"/><polygon class="cls-5" points="97.18 26.89 93.58 26.89 93.58 30.25 89.98 30.25 89.98 33.61 89.98 36.97 93.58 36.97 93.58 33.61 97.18 33.61 100.78 33.61 100.78 30.25 100.78 26.89 97.18 26.89"/><polygon class="cls-5" points="93.58 16.8 89.98 16.8 86.38 16.8 82.78 16.8 82.78 20.17 86.38 20.17 86.38 23.52 89.98 23.52 89.98 20.17 93.58 20.17 97.18 20.17 97.18 16.8 93.58 16.8"/><polygon class="cls-5" points="50.39 77.29 46.79 77.29 43.19 77.29 39.59 77.29 39.59 73.94 35.99 73.94 32.39 73.94 32.39 70.57 28.79 70.57 28.79 67.21 25.2 67.21 25.2 70.57 25.2 73.94 28.79 73.94 28.79 77.29 32.39 77.29 35.99 77.29 35.99 80.65 39.59 80.65 43.19 80.65 46.79 80.65 50.39 80.65 53.99 80.65 57.59 80.65 57.59 77.29 53.99 77.29 50.39 77.29"/><polygon class="cls-5" points="57.59 73.94 57.59 77.29 61.19 77.29 64.79 77.29 64.79 73.94 61.19 73.94 57.59 73.94"/><rect class="cls-5" x="64.79" y="70.57" width="3.6" height="3.36"/><polygon class="cls-5" points="25.2 60.49 21.6 60.49 21.6 63.85 21.6 67.21 25.2 67.21 25.2 63.85 25.2 60.49"/><polygon class="cls-5" points="21.6 53.77 21.6 50.41 21.6 47.05 18 47.05 18 50.41 18 53.77 18 57.13 18 60.49 21.6 60.49 21.6 57.13 21.6 53.77"/><rect class="cls-5" x="18" y="40.33" width="3.6" height="3.36"/></g></svg>