<?xml version="1.0" encoding="UTF-8"?><svg id="Layer_2" xmlns="http://www.w3.org/2000/svg" viewBox="0 0 2394.07 729.03"><defs><style>.cls-1{fill:#ef902d;}.cls-1,.cls-2,.cls-3,.cls-4,.cls-5,.cls-6{stroke-width:0px;}.cls-2{fill:#b03626;}.cls-3{fill:#b46832;}.cls-4{fill:#fde928;}.cls-5{fill:#ec7b2d;}.cls-6{fill:#f5bc2a;}</style></defs><g id="Capa_1"><rect class="cls-6" x="956.74" y="121.3" width="1437.33" height="190.81"/><rect class="cls-5" x="956.74" y="312.12" width="1437.33" height="220.16"/><rect class="cls-2" x="956.74" y="434.02" width="1437.33" height="98.26"/><polygon class="cls-2" points="2347.36 425.5 2394.07 425.5 2394.07 403.48 2364.12 403.48 2364.12 334.99 2285.9 334.99 2285.9 374.13 2199.29 374.13 2199.29 312.12 2168.55 312.12 2168.55 364.34 2129.44 364.34 2129.44 383.91 2079.15 383.91 2079.15 364.34 2003.72 364.34 2003.72 393.7 1931.08 393.7 1931.08 312.12 1917.12 312.12 1917.12 359.45 1830.51 359.45 1830.51 410.82 1724.34 410.82 1724.34 371.68 1654.5 371.68 1654.5 349.66 1632.15 349.66 1632.15 425.5 1553.92 425.5 1553.92 376.58 1514.81 376.58 1514.81 413.27 1444.96 413.27 1444.96 371.68 1380.71 371.68 1380.71 337.43 1355.56 337.43 1355.56 364.34 1333.21 364.34 1333.21 403.48 1285.72 403.48 1285.72 364.34 1224.26 364.34 1224.26 413.27 1176.76 413.27 1176.76 349.66 1087.36 349.66 1087.36 376.58 1011.93 376.58 1011.93 420.61 956.74 420.61 956.74 464.65 1023.1 464.65 1023.1 532.28 1059.42 532.28 1059.42 442.63 1112.5 442.63 1112.5 486.66 1151.61 486.66 1151.61 457.31 1238.22 457.31 1238.22 496.45 1280.13 496.45 1280.13 459.75 1361.15 459.75 1361.15 503.79 1422.61 503.79 1422.61 471.98 1475.69 471.98 1475.69 481.77 1553.92 481.77 1553.92 457.31 1690.82 457.31 1690.82 442.63 1861.24 442.63 1861.24 496.45 1886.38 496.45 1886.38 467.09 2023.28 467.09 2023.28 532.28 2076.36 532.28 2076.36 425.5 2132.24 425.5 2132.24 476.88 2174.14 476.88 2174.14 440.18 2271.93 440.18 2271.93 513.57 2338.98 513.57 2338.98 481.77 2347.36 481.77 2347.36 425.5"/><path class="cls-3" d="M2341.15,353.7h13.81v-.56c-4.61.12-9.21.31-13.81.56Z"/><rect class="cls-5" x="1354.16" y="406.3" width="37.02" height="31.8"/><rect class="cls-5" x="1437.28" y="431.17" width="37.02" height="31.8"/><rect class="cls-5" x="1663.11" y="387.14" width="37.02" height="31.8"/><rect class="cls-5" x="1626.56" y="434.02" width="37.02" height="31.8"/><rect class="cls-5" x="1764.85" y="397.33" width="37.02" height="31.8"/><rect class="cls-5" x="1876.6" y="406.3" width="37.02" height="31.8"/><rect class="cls-5" x="1939.47" y="422.2" width="37.02" height="31.8"/><rect class="cls-5" x="2026.77" y="381.43" width="37.02" height="31.8"/><rect class="cls-5" x="2122.81" y="392.43" width="37.02" height="31.8"/><rect class="cls-5" x="2271.81" y="381.43" width="37.02" height="31.8"/><rect class="cls-5" x="2300.21" y="438.1" width="37.02" height="31.8"/><rect class="cls-5" x="2213.26" y="422.2" width="37.02" height="31.8"/><rect class="cls-5" x="2053.02" y="473.98" width="37.02" height="31.8"/><rect class="cls-5" x="1280.13" y="438.1" width="37.02" height="31.8"/><rect class="cls-5" x="1151.61" y="440.4" width="37.02" height="31.8"/><rect class="cls-5" x="1086.43" y="374.49" width="37.02" height="31.8"/><rect class="cls-5" x="989.58" y="419.75" width="37.02" height="31.8"/><polygon class="cls-1" points="2352.95 171.07 2352.95 200.43 2325.01 200.43 2325.01 229.79 2260.75 229.79 2260.75 254.25 2199.29 254.25 2199.29 212.66 2171.35 212.66 2171.35 200.43 2115.47 200.43 2115.47 185.75 2065.18 185.75 2065.18 222.45 2040.04 222.45 2040.04 276.27 2012.1 276.27 2012.1 222.45 1967.4 222.45 1967.4 173.52 1936.67 173.52 1936.67 242.02 1836.09 242.02 1836.09 175.97 1743.9 175.97 1743.9 224.89 1693.61 224.89 1693.61 249.36 1629.35 249.36 1629.35 217.56 1607 217.56 1607 232.23 1542.75 232.23 1542.75 153.95 1484.08 153.95 1484.08 193.09 1397.47 193.09 1397.47 220 1271.75 220 1271.75 288.5 1215.87 288.5 1215.87 193.09 1143.23 193.09 1143.23 227.34 1048.25 227.34 1048.25 276.27 956.74 276.27 956.74 312.12 1028.69 312.12 1028.69 328.01 1073.39 328.01 1073.39 312.12 1126.47 312.12 1126.47 328.01 1171.17 328.01 1171.17 312.12 1203.3 312.12 1203.3 337.19 1248 337.19 1248 312.12 1296.89 312.12 1296.89 330.46 1341.59 330.46 1341.59 312.12 1429.6 312.12 1429.6 328.87 1474.3 328.87 1474.3 312.12 1604.21 312.12 1604.21 337.19 1648.91 337.19 1648.91 312.12 1695.01 312.12 1695.01 328.87 1739.71 328.87 1739.71 312.12 1858.44 312.12 1858.44 337.19 1903.15 337.19 1903.15 328.87 1947.85 328.87 1947.85 312.12 1982.07 312.12 1982.07 337.19 2026.77 337.19 2026.77 312.12 2049.18 312.12 2049.18 328.01 2093.88 328.01 2093.88 312.12 2118.97 312.12 2118.97 337.19 2163.67 337.19 2163.67 312.12 2283.8 312.12 2283.8 318.23 2328.5 318.23 2328.5 312.12 2394.07 312.12 2394.07 171.07 2352.95 171.07"/><polygon class="cls-4" points="2394.07 17.13 2352.95 17.13 2352.95 46.48 2325.01 46.48 2325.01 75.84 2260.75 75.84 2260.75 100.31 2199.29 100.31 2199.29 58.71 2171.35 58.71 2171.35 46.48 2115.47 46.48 2115.47 31.8 2065.18 31.8 2065.18 68.5 2040.04 68.5 2040.04 122.32 2012.1 122.32 2012.1 68.5 1967.4 68.5 1967.4 19.57 1936.67 19.57 1936.67 88.07 1836.09 88.07 1836.09 22.02 1743.9 22.02 1743.9 70.95 1693.61 70.95 1693.61 95.41 1629.35 95.41 1629.35 63.61 1607 63.61 1607 78.29 1542.75 78.29 1542.75 0 1484.08 0 1484.08 39.15 1397.47 39.15 1397.47 66.06 1271.75 66.06 1271.75 134.56 1215.87 134.56 1215.87 39.15 1143.23 39.15 1143.23 73.39 1048.25 73.39 1048.25 122.32 956.74 122.32 956.74 158.17 1028.69 158.17 1028.69 174.07 1073.39 174.07 1073.39 158.17 1203.3 158.17 1203.3 183.24 1248 183.24 1248 158.17 1296.89 158.17 1296.89 176.52 1341.59 176.52 1341.59 158.17 1429.6 158.17 1429.6 174.92 1474.3 174.92 1474.3 158.17 1604.21 158.17 1604.21 183.24 1648.91 183.24 1648.91 158.17 1695.01 158.17 1695.01 174.92 1739.71 174.92 1739.71 158.17 1858.44 158.17 1858.44 183.24 1903.15 183.24 1903.15 158.17 1982.07 158.17 1982.07 183.24 2026.77 183.24 2026.77 158.17 2118.97 158.17 2118.97 183.24 2163.67 183.24 2163.67 158.17 2283.8 158.17 2283.8 164.29 2328.5 164.29 2328.5 158.17 2394.07 158.17 2394.07 17.13"/><rect class="cls-6" y="121.3" width="1159.79" height="190.81"/><rect class="cls-5" y="312.11" width="1159.79" height="220.17"/><rect class="cls-2" y="434.02" width="1159.79" height="98.26"/><polygon class="cls-2" points="1159.79 383.91 1122.42 383.91 1122.42 364.34 1046.98 364.34 1046.98 393.7 974.35 393.7 974.35 312.11 960.38 312.11 960.38 359.45 873.77 359.45 873.77 410.82 767.6 410.82 767.6 371.68 697.76 371.68 697.76 349.66 675.41 349.66 675.41 425.5 597.18 425.5 597.18 376.58 558.07 376.58 558.07 413.27 488.23 413.27 488.23 371.68 423.97 371.68 423.97 337.43 398.83 337.43 398.83 364.34 376.47 364.34 376.47 403.48 328.98 403.48 328.98 364.34 267.52 364.34 267.52 413.27 220.02 413.27 220.02 349.66 130.62 349.66 130.62 376.58 55.19 376.58 55.19 420.61 0 420.61 0 464.65 66.36 464.65 66.36 532.28 102.68 532.28 102.68 442.63 155.76 442.63 155.76 486.66 194.88 486.66 194.88 457.31 281.48 457.31 281.48 496.45 323.39 496.45 323.39 459.75 404.41 459.75 404.41 503.79 465.87 503.79 465.87 471.98 518.96 471.98 518.96 481.77 597.18 481.77 597.18 457.31 734.08 457.31 734.08 442.63 904.5 442.63 904.5 496.45 929.65 496.45 929.65 467.09 1066.54 467.09 1066.54 532.28 1119.62 532.28 1119.62 425.5 1159.79 425.5 1159.79 383.91"/><rect class="cls-5" x="397.43" y="406.3" width="37.02" height="31.8"/><rect class="cls-5" x="480.54" y="431.17" width="37.02" height="31.8"/><rect class="cls-5" x="706.38" y="387.14" width="37.02" height="31.8"/><rect class="cls-5" x="669.82" y="434.02" width="37.02" height="31.8"/><rect class="cls-5" x="808.12" y="397.33" width="37.02" height="31.8"/><rect class="cls-5" x="919.87" y="406.3" width="37.02" height="31.8"/><rect class="cls-5" x="982.73" y="422.2" width="37.02" height="31.8"/><rect class="cls-5" x="1070.03" y="381.43" width="37.02" height="31.8"/><rect class="cls-5" x="1096.29" y="473.98" width="37.02" height="31.8"/><rect class="cls-5" x="323.39" y="438.1" width="37.02" height="31.8"/><rect class="cls-5" x="194.88" y="440.4" width="37.02" height="31.8"/><rect class="cls-5" x="129.69" y="374.49" width="37.02" height="31.8"/><rect class="cls-5" x="32.84" y="419.75" width="37.02" height="31.8"/><polygon class="cls-1" points="1159.79 200.43 1158.74 200.43 1158.74 185.75 1108.45 185.75 1108.45 222.45 1083.3 222.45 1083.3 276.27 1055.36 276.27 1055.36 222.45 1010.67 222.45 1010.67 173.52 979.93 173.52 979.93 242.02 879.36 242.02 879.36 175.97 787.16 175.97 787.16 224.89 736.87 224.89 736.87 249.36 672.62 249.36 672.62 217.56 650.27 217.56 650.27 232.23 586.01 232.23 586.01 153.95 527.34 153.95 527.34 193.09 440.73 193.09 440.73 220 315.01 220 315.01 288.5 259.13 288.5 259.13 193.09 186.5 193.09 186.5 227.34 91.51 227.34 91.51 276.27 0 276.27 0 312.12 71.95 312.12 71.95 328.01 116.65 328.01 116.65 312.12 169.73 312.12 169.73 328.01 214.44 328.01 214.44 312.12 246.56 312.12 246.56 337.19 291.26 337.19 291.26 312.12 340.15 312.12 340.15 330.46 384.86 330.46 384.86 312.12 472.86 312.12 472.86 328.87 517.56 328.87 517.56 312.12 647.47 312.12 647.47 337.19 692.17 337.19 692.17 312.12 738.27 312.12 738.27 328.87 782.97 328.87 782.97 312.12 901.71 312.12 901.71 337.19 946.41 337.19 946.41 328.87 991.11 328.87 991.11 312.12 1025.33 312.12 1025.33 337.19 1070.03 337.19 1070.03 312.12 1092.45 312.12 1092.45 328.01 1137.14 328.01 1137.14 312.12 1159.79 312.12 1159.79 200.43"/><polygon class="cls-4" points="1159.79 46.48 1158.74 46.48 1158.74 31.8 1108.45 31.8 1108.45 68.5 1083.3 68.5 1083.3 122.32 1055.36 122.32 1055.36 68.5 1010.67 68.5 1010.67 19.57 979.93 19.57 979.93 88.07 879.36 88.07 879.36 22.02 787.16 22.02 787.16 70.95 736.87 70.95 736.87 95.41 672.62 95.41 672.62 63.61 650.27 63.61 650.27 78.29 586.01 78.29 586.01 0 527.34 0 527.34 39.15 440.73 39.15 440.73 66.06 315.01 66.06 315.01 134.56 259.13 134.56 259.13 39.15 186.5 39.15 186.5 73.39 91.51 73.39 91.51 122.32 0 122.32 0 158.17 71.95 158.17 71.95 174.07 116.65 174.07 116.65 158.17 246.56 158.17 246.56 183.24 291.26 183.24 291.26 158.17 340.15 158.17 340.15 176.52 384.86 176.52 384.86 158.17 472.86 158.17 472.86 174.92 517.56 174.92 517.56 158.17 647.47 158.17 647.47 183.24 692.17 183.24 692.17 158.17 738.27 158.17 738.27 174.92 782.97 174.92 782.97 158.17 901.71 158.17 901.71 183.24 946.41 183.24 946.41 158.17 1025.33 158.17 1025.33 183.24 1070.03 183.24 1070.03 158.17 1159.79 158.17 1159.79 46.48"/><rect class="cls-6" x="953.69" y="318.05" width="1437.33" height="190.81"/><rect class="cls-5" x="953.69" y="508.86" width="1437.33" height="220.16"/><rect class="cls-2" x="953.69" y="630.77" width="1437.33" height="98.26"/><polygon class="cls-2" points="2344.31 622.25 2391.02 622.25 2391.02 600.23 2361.07 600.23 2361.07 531.73 2282.85 531.73 2282.85 570.87 2196.24 570.87 2196.24 508.86 2165.51 508.86 2165.51 561.09 2126.39 561.09 2126.39 580.66 2076.11 580.66 2076.11 561.09 2000.67 561.09 2000.67 590.45 1928.03 590.45 1928.03 508.86 1914.07 508.86 1914.07 556.19 1827.46 556.19 1827.46 607.57 1721.29 607.57 1721.29 568.43 1651.45 568.43 1651.45 546.41 1629.1 546.41 1629.1 622.25 1550.87 622.25 1550.87 573.32 1511.76 573.32 1511.76 610.01 1441.92 610.01 1441.92 568.43 1377.66 568.43 1377.66 534.18 1352.51 534.18 1352.51 561.09 1330.16 561.09 1330.16 600.23 1282.67 600.23 1282.67 561.09 1221.21 561.09 1221.21 610.01 1173.71 610.01 1173.71 546.41 1084.31 546.41 1084.31 573.32 1008.88 573.32 1008.88 617.36 953.69 617.36 953.69 661.39 1020.05 661.39 1020.05 729.03 1056.37 729.03 1056.37 639.37 1109.46 639.37 1109.46 683.41 1148.57 683.41 1148.57 654.05 1235.17 654.05 1235.17 693.2 1277.08 693.2 1277.08 656.5 1358.1 656.5 1358.1 700.53 1419.57 700.53 1419.57 668.73 1472.65 668.73 1472.65 678.52 1550.87 678.52 1550.87 654.05 1687.77 654.05 1687.77 639.37 1858.19 639.37 1858.19 693.2 1883.34 693.2 1883.34 663.84 2020.23 663.84 2020.23 729.03 2073.31 729.03 2073.31 622.25 2129.19 622.25 2129.19 673.62 2171.1 673.62 2171.1 636.93 2268.88 636.93 2268.88 710.32 2335.93 710.32 2335.93 678.52 2344.31 678.52 2344.31 622.25"/><path class="cls-3" d="M2338.1,550.44h13.81v-.56c-4.61.12-9.21.31-13.81.56Z"/><rect class="cls-5" x="1351.12" y="603.04" width="37.02" height="31.8"/><rect class="cls-5" x="1434.23" y="627.92" width="37.02" height="31.8"/><rect class="cls-5" x="1660.07" y="583.88" width="37.02" height="31.8"/><rect class="cls-5" x="1623.51" y="630.77" width="37.02" height="31.8"/><rect class="cls-5" x="1761.81" y="594.07" width="37.02" height="31.8"/><rect class="cls-5" x="1873.56" y="603.04" width="37.02" height="31.8"/><rect class="cls-5" x="1936.42" y="618.95" width="37.02" height="31.8"/><rect class="cls-5" x="2023.72" y="578.17" width="37.02" height="31.8"/><rect class="cls-5" x="2119.76" y="589.18" width="37.02" height="31.8"/><rect class="cls-5" x="2268.76" y="578.17" width="37.02" height="31.8"/><rect class="cls-5" x="2297.16" y="634.85" width="37.02" height="31.8"/><rect class="cls-5" x="2210.21" y="618.95" width="37.02" height="31.8"/><rect class="cls-5" x="2049.98" y="670.73" width="37.02" height="31.8"/><rect class="cls-5" x="1277.08" y="634.85" width="37.02" height="31.8"/><rect class="cls-5" x="1148.57" y="637.14" width="37.02" height="31.8"/><rect class="cls-5" x="1083.38" y="571.24" width="37.02" height="31.8"/><rect class="cls-5" x="986.53" y="616.5" width="37.02" height="31.8"/><polygon class="cls-1" points="2349.9 367.82 2349.9 397.18 2321.96 397.18 2321.96 426.53 2257.7 426.53 2257.7 451 2196.24 451 2196.24 409.41 2168.3 409.41 2168.3 397.18 2112.43 397.18 2112.43 382.5 2062.14 382.5 2062.14 419.2 2036.99 419.2 2036.99 473.02 2009.06 473.02 2009.06 419.2 1964.36 419.2 1964.36 370.27 1933.62 370.27 1933.62 438.76 1833.05 438.76 1833.05 372.71 1740.85 372.71 1740.85 421.64 1690.56 421.64 1690.56 446.11 1626.31 446.11 1626.31 414.3 1603.96 414.3 1603.96 428.98 1539.7 428.98 1539.7 350.69 1481.03 350.69 1481.03 389.84 1394.42 389.84 1394.42 416.75 1268.7 416.75 1268.7 485.25 1212.83 485.25 1212.83 389.84 1140.19 389.84 1140.19 424.09 1045.2 424.09 1045.2 473.02 953.69 473.02 953.69 508.86 1025.64 508.86 1025.64 524.77 1070.34 524.77 1070.34 508.86 1123.42 508.86 1123.42 524.77 1168.13 524.77 1168.13 508.86 1200.25 508.86 1200.25 533.94 1244.95 533.94 1244.95 508.86 1293.85 508.86 1293.85 527.21 1338.55 527.21 1338.55 508.86 1426.55 508.86 1426.55 525.62 1471.25 525.62 1471.25 508.86 1601.16 508.86 1601.16 533.94 1645.86 533.94 1645.86 508.86 1691.96 508.86 1691.96 525.62 1736.66 525.62 1736.66 508.86 1855.4 508.86 1855.4 533.94 1900.1 533.94 1900.1 525.62 1944.8 525.62 1944.8 508.86 1979.02 508.86 1979.02 533.94 2023.72 533.94 2023.72 508.86 2046.14 508.86 2046.14 524.77 2090.83 524.77 2090.83 508.86 2115.92 508.86 2115.92 533.94 2160.62 533.94 2160.62 508.86 2280.75 508.86 2280.75 514.98 2325.45 514.98 2325.45 508.86 2391.02 508.86 2391.02 367.82 2349.9 367.82"/><polygon class="cls-4" points="2391.02 213.87 2349.9 213.87 2349.9 243.23 2321.96 243.23 2321.96 272.59 2257.7 272.59 2257.7 297.05 2196.24 297.05 2196.24 255.47 2168.3 255.47 2168.3 243.23 2112.43 243.23 2112.43 228.55 2062.14 228.55 2062.14 265.25 2036.99 265.25 2036.99 319.07 2009.05 319.07 2009.05 265.25 1964.36 265.25 1964.36 216.32 1933.62 216.32 1933.62 284.82 1833.05 284.82 1833.05 218.77 1740.85 218.77 1740.85 267.7 1690.56 267.7 1690.56 292.16 1626.31 292.16 1626.31 260.36 1603.95 260.36 1603.95 275.03 1539.7 275.03 1539.7 196.75 1481.03 196.75 1481.03 235.89 1394.42 235.89 1394.42 262.8 1268.7 262.8 1268.7 331.3 1212.82 331.3 1212.82 235.89 1140.19 235.89 1140.19 270.14 1045.2 270.14 1045.2 319.07 953.69 319.07 953.69 354.92 1025.64 354.92 1025.64 370.82 1070.34 370.82 1070.34 354.92 1200.25 354.92 1200.25 379.99 1244.95 379.99 1244.95 354.92 1293.84 354.92 1293.84 373.26 1338.55 373.26 1338.55 354.92 1426.55 354.92 1426.55 371.67 1471.25 371.67 1471.25 354.92 1601.16 354.92 1601.16 379.99 1645.86 379.99 1645.86 354.92 1691.96 354.92 1691.96 371.67 1736.66 371.67 1736.66 354.92 1855.4 354.92 1855.4 379.99 1900.1 379.99 1900.1 354.92 1979.02 354.92 1979.02 379.99 2023.72 379.99 2023.72 354.92 2115.92 354.92 2115.92 379.99 2160.62 379.99 2160.62 354.92 2280.75 354.92 2280.75 361.03 2325.45 361.03 2325.45 354.92 2391.02 354.92 2391.02 213.87"/><rect class="cls-6" x="3.05" y="318.05" width="1159.79" height="190.81"/><rect class="cls-5" x="3.05" y="508.86" width="1159.79" height="220.16"/><rect class="cls-2" x="3.05" y="630.77" width="1159.79" height="98.26"/><polygon class="cls-2" points="1162.84 580.66 1125.46 580.66 1125.46 561.09 1050.03 561.09 1050.03 590.45 977.39 590.45 977.39 508.86 963.43 508.86 963.43 556.19 876.82 556.19 876.82 607.57 770.65 607.57 770.65 568.43 700.81 568.43 700.81 546.41 678.46 546.41 678.46 622.25 600.23 622.25 600.23 573.32 561.12 573.32 561.12 610.01 491.27 610.01 491.27 568.43 427.02 568.43 427.02 534.18 401.87 534.18 401.87 561.09 379.52 561.09 379.52 600.23 332.03 600.23 332.03 561.09 270.57 561.09 270.57 610.01 223.07 610.01 223.07 546.41 133.67 546.41 133.67 573.32 58.24 573.32 58.24 617.36 3.05 617.36 3.05 661.39 69.41 661.39 69.41 729.03 105.73 729.03 105.73 639.37 158.81 639.37 158.81 683.41 197.92 683.41 197.92 654.05 284.53 654.05 284.53 693.2 326.44 693.2 326.44 656.5 407.46 656.5 407.46 700.53 468.92 700.53 468.92 668.73 522.01 668.73 522.01 678.52 600.23 678.52 600.23 654.05 737.13 654.05 737.13 639.37 907.55 639.37 907.55 693.2 932.69 693.2 932.69 663.84 1069.59 663.84 1069.59 729.03 1122.67 729.03 1122.67 622.25 1162.84 622.25 1162.84 580.66"/><rect class="cls-5" x="400.47" y="603.04" width="37.02" height="31.8"/><rect class="cls-5" x="483.59" y="627.92" width="37.02" height="31.8"/><rect class="cls-5" x="709.42" y="583.88" width="37.02" height="31.8"/><rect class="cls-5" x="672.87" y="630.77" width="37.02" height="31.8"/><rect class="cls-5" x="811.16" y="594.07" width="37.02" height="31.8"/><rect class="cls-5" x="922.91" y="603.04" width="37.02" height="31.8"/><rect class="cls-5" x="985.78" y="618.95" width="37.02" height="31.8"/><rect class="cls-5" x="1073.08" y="578.17" width="37.02" height="31.8"/><rect class="cls-5" x="1099.33" y="670.73" width="37.02" height="31.8"/><rect class="cls-5" x="326.44" y="634.85" width="37.02" height="31.8"/><rect class="cls-5" x="197.92" y="637.14" width="37.02" height="31.8"/><rect class="cls-5" x="132.74" y="571.24" width="37.02" height="31.8"/><rect class="cls-5" x="35.89" y="616.5" width="37.02" height="31.8"/><polygon class="cls-1" points="1162.84 397.18 1161.79 397.18 1161.79 382.5 1111.49 382.5 1111.49 419.2 1086.35 419.2 1086.35 473.02 1058.41 473.02 1058.41 419.2 1013.71 419.2 1013.71 370.27 982.98 370.27 982.98 438.77 882.4 438.77 882.4 372.71 790.21 372.71 790.21 421.64 739.92 421.64 739.92 446.11 675.66 446.11 675.66 414.3 653.31 414.3 653.31 428.98 589.06 428.98 589.06 350.69 530.39 350.69 530.39 389.84 443.78 389.84 443.78 416.75 318.06 416.75 318.06 485.25 262.18 485.25 262.18 389.84 189.54 389.84 189.54 424.09 94.56 424.09 94.56 473.02 3.05 473.02 3.05 508.86 75 508.86 75 524.77 119.7 524.77 119.7 508.86 172.78 508.86 172.78 524.77 217.48 524.77 217.48 508.86 249.61 508.86 249.61 533.94 294.31 533.94 294.31 508.86 343.2 508.86 343.2 527.21 387.9 527.21 387.9 508.86 475.91 508.86 475.91 525.62 520.61 525.62 520.61 508.86 650.52 508.86 650.52 533.94 695.22 533.94 695.22 508.86 741.32 508.86 741.32 525.62 786.02 525.62 786.02 508.86 904.75 508.86 904.75 533.94 949.46 533.94 949.46 525.62 994.16 525.62 994.16 508.86 1028.38 508.86 1028.38 533.94 1073.08 533.94 1073.08 508.86 1095.49 508.86 1095.49 524.77 1140.19 524.77 1140.19 508.86 1162.84 508.86 1162.84 397.18"/><polygon class="cls-4" points="1162.84 243.23 1161.79 243.23 1161.79 228.55 1111.49 228.55 1111.49 265.25 1086.35 265.25 1086.35 319.07 1058.41 319.07 1058.41 265.25 1013.71 265.25 1013.71 216.32 982.98 216.32 982.98 284.82 882.4 284.82 882.4 218.77 790.21 218.77 790.21 267.7 739.92 267.7 739.92 292.16 675.66 292.16 675.66 260.35 653.31 260.35 653.31 275.03 589.06 275.03 589.06 196.75 530.39 196.75 530.39 235.89 443.78 235.89 443.78 262.8 318.06 262.8 318.06 331.3 262.18 331.3 262.18 235.89 189.54 235.89 189.54 270.14 94.56 270.14 94.56 319.07 3.05 319.07 3.05 354.92 75 354.92 75 370.82 119.7 370.82 119.7 354.92 249.61 354.92 249.61 379.99 294.31 379.99 294.31 354.92 343.2 354.92 343.2 373.26 387.9 373.26 387.9 354.92 475.91 354.92 475.91 371.67 520.61 371.67 520.61 354.92 650.52 354.92 650.52 379.99 695.22 379.99 695.22 354.92 741.32 354.92 741.32 371.67 786.02 371.67 786.02 354.92 904.75 354.92 904.75 379.99 949.46 379.99 949.46 354.92 1028.38 354.92 1028.38 379.99 1073.08 379.99 1073.08 354.92 1162.84 354.92 1162.84 243.23"/></g></svg>